<svg width="1281" height="640" viewBox="0 0 1281 640" fill="none" xmlns="http://www.w3.org/2000/svg">
<g clip-path="url(#clip0_4150_53)">
<rect x="0.0737305" width="1280" height="640" rx="100" fill="white"/>
<path d="M1584.4 -7.74627C640.3 -196.062 1092.59 2014.42 283.321 1479.2M1877.44 681.976C933.335 493.661 1385.62 2704.14 576.356 2168.92M1585.75 -7.19589L1877.44 681.609M283.325 1479.96L576.245 2168.87" stroke="url(#paint0_linear_4150_53)" stroke-width="10" stroke-linecap="round"/>
<path d="M-660.356 926.281C-848.671 -17.8213 1361.81 434.467 826.587 -374.801M29.3668 1219.32C-158.948 275.214 2051.53 727.502 1516.31 -81.7658M-659.805 927.632L28.9999 1219.32M827.35 -374.797L1516.26 -81.8761" stroke="url(#paint1_linear_4150_53)" stroke-width="10" stroke-linecap="round"/>
<path d="M1654.48 713.58C1842.8 -230.523 -367.684 221.766 167.541 -587.502M964.761 1006.61C1153.08 62.512 -1057.41 514.801 -522.182 -294.467M1653.93 714.93L965.128 1006.62M166.778 -587.499L-522.132 -294.578" stroke="url(#paint2_linear_4150_53)" stroke-width="10" stroke-linecap="round"/>
<path d="M532.595 367.195V345.377H535.237V364.852H545.379V367.195H532.595ZM549.129 367.195V350.832H551.643V367.195H549.129ZM550.407 348.104C549.917 348.104 549.495 347.938 549.139 347.604C548.791 347.27 548.617 346.869 548.617 346.4C548.617 345.931 548.791 345.53 549.139 345.196C549.495 344.862 549.917 344.695 550.407 344.695C550.897 344.695 551.316 344.862 551.664 345.196C552.019 345.53 552.197 345.931 552.197 346.4C552.197 346.869 552.019 347.27 551.664 347.604C551.316 347.938 550.897 348.104 550.407 348.104ZM558.762 357.352V367.195H556.248V350.832H558.677V353.388H558.89C559.273 352.558 559.856 351.89 560.637 351.386C561.418 350.874 562.427 350.619 563.663 350.619C564.771 350.619 565.74 350.846 566.571 351.3C567.402 351.748 568.048 352.43 568.51 353.346C568.972 354.255 569.202 355.406 569.202 356.798V367.195H566.688V356.968C566.688 355.683 566.354 354.681 565.687 353.964C565.019 353.239 564.103 352.877 562.938 352.877C562.136 352.877 561.418 353.051 560.786 353.399C560.161 353.747 559.668 354.255 559.305 354.923C558.943 355.59 558.762 356.4 558.762 357.352ZM584.109 360.505V350.832H586.623V367.195H584.109V364.425H583.939C583.555 365.256 582.959 365.963 582.149 366.545C581.339 367.121 580.317 367.408 579.081 367.408C578.058 367.408 577.149 367.185 576.354 366.737C575.558 366.283 574.933 365.601 574.479 364.692C574.024 363.776 573.797 362.621 573.797 361.229V350.832H576.311V361.059C576.311 362.252 576.645 363.204 577.312 363.914C577.987 364.624 578.846 364.979 579.89 364.979C580.515 364.979 581.151 364.82 581.797 364.5C582.451 364.18 582.998 363.69 583.438 363.03C583.886 362.369 584.109 361.528 584.109 360.505ZM593.103 350.832L597.024 357.522L600.944 350.832H603.842L598.558 359.013L603.842 367.195H600.944L597.024 360.846L593.103 367.195H590.206L595.405 359.013L590.206 350.832H593.103ZM622.941 367.195H616.208V345.377H623.239C625.356 345.377 627.167 345.814 628.672 346.688C630.178 347.554 631.332 348.8 632.135 350.427C632.937 352.046 633.339 353.985 633.339 356.244C633.339 358.516 632.934 360.473 632.124 362.114C631.314 363.747 630.136 365.004 628.587 365.885C627.039 366.759 625.157 367.195 622.941 367.195ZM618.85 364.852H622.77C624.574 364.852 626.069 364.504 627.256 363.808C628.442 363.112 629.326 362.121 629.908 360.835C630.491 359.55 630.782 358.019 630.782 356.244C630.782 354.482 630.494 352.966 629.919 351.695C629.344 350.416 628.484 349.436 627.341 348.754C626.197 348.065 624.773 347.721 623.069 347.721H618.85V364.852ZM644.29 367.536C642.714 367.536 641.354 367.188 640.21 366.492C639.074 365.789 638.197 364.809 637.579 363.552C636.968 362.288 636.663 360.817 636.663 359.141C636.663 357.465 636.968 355.988 637.579 354.71C638.197 353.424 639.056 352.423 640.157 351.705C641.265 350.981 642.557 350.619 644.035 350.619C644.887 350.619 645.729 350.761 646.56 351.045C647.39 351.329 648.147 351.79 648.829 352.43C649.511 353.062 650.054 353.9 650.459 354.944C650.864 355.988 651.066 357.273 651.066 358.8V359.866H638.452V357.692H648.509C648.509 356.769 648.324 355.945 647.955 355.221C647.593 354.496 647.074 353.925 646.4 353.506C645.732 353.087 644.944 352.877 644.035 352.877C643.033 352.877 642.167 353.126 641.435 353.623C640.711 354.113 640.153 354.752 639.763 355.54C639.372 356.329 639.177 357.174 639.177 358.076V359.525C639.177 360.761 639.39 361.808 639.816 362.668C640.249 363.52 640.849 364.17 641.616 364.617C642.383 365.058 643.275 365.278 644.29 365.278C644.951 365.278 645.547 365.185 646.08 365.001C646.62 364.809 647.085 364.525 647.476 364.148C647.866 363.765 648.168 363.289 648.381 362.721L650.81 363.403C650.555 364.227 650.125 364.951 649.521 365.576C648.917 366.194 648.172 366.677 647.284 367.025C646.396 367.366 645.398 367.536 644.29 367.536ZM667.773 350.832L661.722 367.195H659.165L653.114 350.832H655.841L660.358 363.871H660.529L665.046 350.832H667.773ZM677.367 367.536C675.79 367.536 674.43 367.188 673.286 366.492C672.15 365.789 671.273 364.809 670.655 363.552C670.044 362.288 669.739 360.817 669.739 359.141C669.739 357.465 670.044 355.988 670.655 354.71C671.273 353.424 672.132 352.423 673.233 351.705C674.341 350.981 675.634 350.619 677.111 350.619C677.963 350.619 678.805 350.761 679.636 351.045C680.467 351.329 681.223 351.79 681.905 352.43C682.587 353.062 683.13 353.9 683.535 354.944C683.94 355.988 684.142 357.273 684.142 358.8V359.866H671.528V357.692H681.585C681.585 356.769 681.401 355.945 681.031 355.221C680.669 354.496 680.151 353.925 679.476 353.506C678.808 353.087 678.02 352.877 677.111 352.877C676.109 352.877 675.243 353.126 674.511 353.623C673.787 354.113 673.229 354.752 672.839 355.54C672.448 356.329 672.253 357.174 672.253 358.076V359.525C672.253 360.761 672.466 361.808 672.892 362.668C673.325 363.52 673.925 364.17 674.693 364.617C675.46 365.058 676.351 365.278 677.367 365.278C678.027 365.278 678.624 365.185 679.156 365.001C679.696 364.809 680.161 364.525 680.552 364.148C680.943 363.765 681.244 363.289 681.457 362.721L683.886 363.403C683.631 364.227 683.201 364.951 682.597 365.576C681.994 366.194 681.248 366.677 680.36 367.025C679.472 367.366 678.474 367.536 677.367 367.536ZM690.481 345.377V367.195H687.967V345.377H690.481ZM701.734 367.536C700.256 367.536 698.96 367.185 697.845 366.482C696.737 365.778 695.871 364.795 695.246 363.531C694.628 362.266 694.319 360.789 694.319 359.099C694.319 357.394 694.628 355.906 695.246 354.635C695.871 353.364 696.737 352.376 697.845 351.673C698.96 350.97 700.256 350.619 701.734 350.619C703.211 350.619 704.503 350.97 705.611 351.673C706.726 352.376 707.593 353.364 708.211 354.635C708.836 355.906 709.148 357.394 709.148 359.099C709.148 360.789 708.836 362.266 708.211 363.531C707.593 364.795 706.726 365.778 705.611 366.482C704.503 367.185 703.211 367.536 701.734 367.536ZM701.734 365.278C702.856 365.278 703.779 364.99 704.503 364.415C705.228 363.839 705.764 363.083 706.112 362.146C706.46 361.208 706.634 360.192 706.634 359.099C706.634 358.005 706.46 356.986 706.112 356.041C705.764 355.097 705.228 354.333 704.503 353.751C703.779 353.168 702.856 352.877 701.734 352.877C700.611 352.877 699.688 353.168 698.964 353.751C698.239 354.333 697.703 355.097 697.355 356.041C697.007 356.986 696.833 358.005 696.833 359.099C696.833 360.192 697.007 361.208 697.355 362.146C697.703 363.083 698.239 363.839 698.964 364.415C699.688 364.99 700.611 365.278 701.734 365.278ZM712.986 373.332V350.832H715.415V353.431H715.713C715.898 353.147 716.154 352.785 716.481 352.344C716.814 351.897 717.29 351.499 717.908 351.151C718.533 350.796 719.378 350.619 720.444 350.619C721.821 350.619 723.036 350.963 724.087 351.652C725.138 352.341 725.958 353.317 726.548 354.582C727.137 355.846 727.432 357.337 727.432 359.056C727.432 360.789 727.137 362.291 726.548 363.562C725.958 364.827 725.142 365.807 724.098 366.503C723.054 367.192 721.85 367.536 720.486 367.536C719.435 367.536 718.593 367.362 717.961 367.014C717.329 366.659 716.843 366.258 716.502 365.81C716.161 365.356 715.898 364.979 715.713 364.681H715.5V373.332H712.986ZM715.458 359.013C715.458 360.249 715.639 361.339 716.001 362.284C716.363 363.222 716.892 363.957 717.588 364.489C718.284 365.015 719.137 365.278 720.145 365.278C721.196 365.278 722.074 365.001 722.777 364.447C723.487 363.886 724.02 363.133 724.375 362.188C724.737 361.237 724.918 360.178 724.918 359.013C724.918 357.863 724.74 356.826 724.385 355.903C724.037 354.972 723.508 354.237 722.798 353.697C722.095 353.151 721.211 352.877 720.145 352.877C719.123 352.877 718.263 353.136 717.567 353.655C716.871 354.166 716.346 354.884 715.99 355.807C715.635 356.723 715.458 357.792 715.458 359.013ZM738.128 367.536C736.552 367.536 735.191 367.188 734.048 366.492C732.912 365.789 732.034 364.809 731.417 363.552C730.806 362.288 730.5 360.817 730.5 359.141C730.5 357.465 730.806 355.988 731.417 354.71C732.034 353.424 732.894 352.423 733.995 351.705C735.103 350.981 736.395 350.619 737.873 350.619C738.725 350.619 739.566 350.761 740.397 351.045C741.228 351.329 741.985 351.79 742.667 352.43C743.348 353.062 743.892 353.9 744.297 354.944C744.701 355.988 744.904 357.273 744.904 358.8V359.866H732.29V357.692H742.347C742.347 356.769 742.162 355.945 741.793 355.221C741.431 354.496 740.912 353.925 740.238 353.506C739.57 353.087 738.782 352.877 737.873 352.877C736.871 352.877 736.005 353.126 735.273 353.623C734.549 354.113 733.991 354.752 733.601 355.54C733.21 356.329 733.015 357.174 733.015 358.076V359.525C733.015 360.761 733.228 361.808 733.654 362.668C734.087 363.52 734.687 364.17 735.454 364.617C736.221 365.058 737.113 365.278 738.128 365.278C738.789 365.278 739.385 365.185 739.918 365.001C740.458 364.809 740.923 364.525 741.314 364.148C741.704 363.765 742.006 363.289 742.219 362.721L744.648 363.403C744.392 364.227 743.963 364.951 743.359 365.576C742.755 366.194 742.01 366.677 741.122 367.025C740.234 367.366 739.236 367.536 738.128 367.536ZM748.728 367.195V350.832H751.157V353.303H751.328C751.626 352.494 752.166 351.837 752.947 351.332C753.728 350.828 754.609 350.576 755.589 350.576C755.774 350.576 756.005 350.58 756.282 350.587C756.559 350.594 756.768 350.604 756.91 350.619V353.175C756.825 353.154 756.63 353.122 756.324 353.08C756.026 353.03 755.71 353.005 755.376 353.005C754.581 353.005 753.87 353.172 753.245 353.506C752.628 353.832 752.137 354.287 751.775 354.869C751.42 355.445 751.243 356.102 751.243 356.84V367.195H748.728ZM774.507 367.494C773.072 367.494 771.837 367.231 770.8 366.705C769.763 366.18 768.964 365.459 768.403 364.543C767.841 363.626 767.561 362.579 767.561 361.4C767.561 360.491 767.753 359.685 768.136 358.982C768.527 358.271 769.063 357.614 769.745 357.011C770.434 356.4 771.226 355.789 772.121 355.178L775.274 352.835C775.892 352.43 776.386 351.996 776.755 351.535C777.131 351.073 777.319 350.469 777.319 349.724C777.319 349.17 777.074 348.634 776.584 348.115C776.101 347.597 775.466 347.337 774.677 347.337C774.123 347.337 773.633 347.479 773.207 347.763C772.788 348.04 772.458 348.396 772.216 348.829C771.982 349.255 771.865 349.695 771.865 350.15C771.865 350.661 772.003 351.18 772.28 351.705C772.564 352.224 772.923 352.756 773.356 353.303C773.797 353.843 774.251 354.397 774.72 354.965L784.734 367.195H781.709L773.442 357.224C772.675 356.3 771.979 355.462 771.354 354.71C770.729 353.957 770.231 353.214 769.862 352.483C769.493 351.751 769.308 350.96 769.308 350.107C769.308 349.127 769.525 348.268 769.958 347.529C770.398 346.783 771.013 346.205 771.801 345.793C772.596 345.374 773.527 345.164 774.592 345.164C775.686 345.164 776.627 345.377 777.415 345.803C778.204 346.222 778.811 346.78 779.237 347.476C779.663 348.165 779.876 348.914 779.876 349.724C779.876 350.768 779.617 351.673 779.099 352.44C778.58 353.207 777.873 353.921 776.979 354.582L772.632 357.82C771.652 358.545 770.988 359.248 770.64 359.93C770.292 360.612 770.118 361.102 770.118 361.4C770.118 362.082 770.295 362.717 770.65 363.307C771.006 363.896 771.506 364.372 772.153 364.734C772.799 365.097 773.555 365.278 774.422 365.278C775.246 365.278 776.048 365.104 776.829 364.756C777.611 364.401 778.317 363.889 778.949 363.222C779.589 362.554 780.093 361.751 780.462 360.814C780.839 359.876 781.027 358.822 781.027 357.65H783.456C783.456 359.099 783.289 360.281 782.955 361.197C782.621 362.114 782.245 362.831 781.826 363.349C781.407 363.868 781.069 364.255 780.814 364.511C780.729 364.617 780.65 364.724 780.579 364.83C780.508 364.937 780.43 365.043 780.345 365.15C779.642 365.938 778.754 366.528 777.682 366.918C776.609 367.302 775.551 367.494 774.507 367.494ZM796.296 367.195V345.377H809.378V347.721H798.938V355.093H808.398V357.437H798.938V367.195H796.296ZM822.849 360.505V350.832H825.364V367.195H822.849V364.425H822.679C822.295 365.256 821.699 365.963 820.889 366.545C820.08 367.121 819.057 367.408 817.821 367.408C816.798 367.408 815.889 367.185 815.094 366.737C814.298 366.283 813.673 365.601 813.219 364.692C812.764 363.776 812.537 362.621 812.537 361.229V350.832H815.051V361.059C815.051 362.252 815.385 363.204 816.053 363.914C816.727 364.624 817.587 364.979 818.631 364.979C819.256 364.979 819.891 364.82 820.538 364.5C821.191 364.18 821.738 363.69 822.178 363.03C822.626 362.369 822.849 361.528 822.849 360.505ZM832.483 345.377V367.195H829.969V345.377H832.483ZM839.602 345.377V367.195H837.088V345.377H839.602ZM853.582 356.67V359.013H844.036V356.67H853.582ZM870.278 350.832C870.151 349.752 869.632 348.914 868.723 348.317C867.814 347.721 866.699 347.423 865.378 347.423C864.412 347.423 863.567 347.579 862.842 347.891C862.125 348.204 861.564 348.634 861.159 349.18C860.761 349.727 860.563 350.349 860.563 351.045C860.563 351.627 860.701 352.128 860.978 352.547C861.262 352.959 861.624 353.303 862.065 353.58C862.505 353.85 862.967 354.074 863.45 354.251C863.933 354.422 864.376 354.56 864.781 354.667L866.997 355.263C867.565 355.413 868.197 355.619 868.894 355.881C869.597 356.144 870.268 356.503 870.907 356.957C871.553 357.405 872.086 357.98 872.505 358.683C872.924 359.386 873.134 360.249 873.134 361.272C873.134 362.451 872.825 363.516 872.207 364.468C871.596 365.42 870.701 366.176 869.522 366.737C868.35 367.298 866.926 367.579 865.25 367.579C863.688 367.579 862.335 367.327 861.191 366.822C860.055 366.318 859.16 365.615 858.506 364.713C857.86 363.811 857.494 362.763 857.409 361.57H860.136C860.207 362.394 860.484 363.076 860.967 363.616C861.457 364.148 862.075 364.546 862.821 364.809C863.574 365.065 864.384 365.192 865.25 365.192C866.259 365.192 867.164 365.029 867.967 364.702C868.769 364.369 869.405 363.907 869.874 363.317C870.342 362.721 870.577 362.025 870.577 361.229C870.577 360.505 870.374 359.915 869.97 359.461C869.565 359.006 869.032 358.637 868.371 358.353C867.711 358.069 866.997 357.82 866.23 357.607L863.545 356.84C861.841 356.35 860.492 355.651 859.497 354.741C858.503 353.832 858.006 352.643 858.006 351.173C858.006 349.951 858.336 348.886 858.996 347.977C859.664 347.06 860.559 346.35 861.681 345.846C862.81 345.335 864.071 345.079 865.463 345.079C866.869 345.079 868.119 345.331 869.213 345.835C870.307 346.332 871.173 347.014 871.813 347.881C872.459 348.747 872.8 349.731 872.835 350.832H870.278ZM884.253 350.832V352.962H875.773V350.832H884.253ZM878.245 346.911H880.759V362.508C880.759 363.218 880.862 363.751 881.068 364.106C881.281 364.454 881.551 364.688 881.877 364.809C882.211 364.923 882.563 364.979 882.932 364.979C883.209 364.979 883.436 364.965 883.614 364.937C883.791 364.901 883.933 364.873 884.04 364.852L884.551 367.11C884.381 367.174 884.143 367.238 883.838 367.302C883.532 367.373 883.145 367.408 882.676 367.408C881.966 367.408 881.27 367.256 880.588 366.95C879.914 366.645 879.352 366.18 878.905 365.555C878.465 364.93 878.245 364.141 878.245 363.19V346.911ZM892.85 367.579C891.813 367.579 890.872 367.384 890.027 366.993C889.182 366.595 888.511 366.023 888.014 365.278C887.517 364.525 887.268 363.616 887.268 362.55C887.268 361.613 887.453 360.853 887.822 360.271C888.191 359.681 888.685 359.219 889.303 358.886C889.921 358.552 890.602 358.303 891.348 358.14C892.101 357.969 892.857 357.835 893.617 357.735C894.612 357.607 895.418 357.511 896.036 357.447C896.661 357.376 897.115 357.259 897.399 357.096C897.691 356.933 897.836 356.648 897.836 356.244V356.158C897.836 355.107 897.549 354.29 896.973 353.708C896.405 353.126 895.542 352.835 894.384 352.835C893.184 352.835 892.243 353.097 891.561 353.623C890.879 354.148 890.4 354.71 890.123 355.306L887.737 354.454C888.163 353.46 888.731 352.685 889.441 352.131C890.159 351.57 890.94 351.18 891.785 350.96C892.637 350.732 893.475 350.619 894.299 350.619C894.825 350.619 895.428 350.683 896.11 350.81C896.799 350.931 897.463 351.183 898.102 351.567C898.749 351.95 899.285 352.529 899.711 353.303C900.137 354.077 900.35 355.114 900.35 356.414V367.195H897.836V364.979H897.708C897.538 365.335 897.254 365.714 896.856 366.119C896.458 366.524 895.929 366.869 895.269 367.153C894.608 367.437 893.802 367.579 892.85 367.579ZM893.234 365.32C894.228 365.32 895.066 365.125 895.748 364.734C896.437 364.344 896.955 363.839 897.303 363.222C897.659 362.604 897.836 361.954 897.836 361.272V358.971C897.73 359.099 897.495 359.216 897.133 359.322C896.778 359.422 896.366 359.511 895.897 359.589C895.436 359.66 894.985 359.724 894.544 359.781C894.111 359.83 893.759 359.873 893.49 359.908C892.836 359.994 892.225 360.132 891.657 360.324C891.096 360.509 890.642 360.789 890.294 361.165C889.953 361.535 889.782 362.039 889.782 362.678C889.782 363.552 890.105 364.212 890.752 364.66C891.405 365.1 892.232 365.32 893.234 365.32ZM911.587 367.536C910.053 367.536 908.732 367.174 907.624 366.45C906.516 365.725 905.664 364.727 905.067 363.456C904.471 362.185 904.172 360.732 904.172 359.099C904.172 357.437 904.478 355.97 905.088 354.699C905.706 353.42 906.566 352.423 907.667 351.705C908.775 350.981 910.067 350.619 911.544 350.619C912.695 350.619 913.732 350.832 914.655 351.258C915.579 351.684 916.335 352.281 916.924 353.048C917.514 353.815 917.88 354.71 918.022 355.732H915.508C915.316 354.987 914.89 354.326 914.229 353.751C913.576 353.168 912.695 352.877 911.587 352.877C910.607 352.877 909.748 353.133 909.009 353.644C908.277 354.148 907.706 354.862 907.294 355.786C906.889 356.702 906.686 357.778 906.686 359.013C906.686 360.278 906.885 361.379 907.283 362.316C907.688 363.254 908.256 363.982 908.988 364.5C909.726 365.018 910.593 365.278 911.587 365.278C912.24 365.278 912.833 365.164 913.366 364.937C913.899 364.71 914.35 364.383 914.719 363.957C915.088 363.531 915.351 363.019 915.508 362.423H918.022C917.88 363.388 917.528 364.259 916.967 365.033C916.413 365.8 915.678 366.411 914.762 366.865C913.853 367.312 912.794 367.536 911.587 367.536ZM924.041 361.229L923.998 358.119H924.51L931.669 350.832H934.78L927.152 358.545H926.939L924.041 361.229ZM921.697 367.195V345.377H924.211V367.195H921.697ZM932.095 367.195L925.703 359.099L927.493 357.352L935.291 367.195H932.095ZM953.527 367.195H946.794V345.377H953.825C955.942 345.377 957.753 345.814 959.258 346.688C960.764 347.554 961.918 348.8 962.721 350.427C963.523 352.046 963.925 353.985 963.925 356.244C963.925 358.516 963.52 360.473 962.71 362.114C961.9 363.747 960.721 365.004 959.173 365.885C957.625 366.759 955.743 367.195 953.527 367.195ZM949.436 364.852H953.356C955.16 364.852 956.655 364.504 957.841 363.808C959.028 363.112 959.912 362.121 960.494 360.835C961.077 359.55 961.368 358.019 961.368 356.244C961.368 354.482 961.08 352.966 960.505 351.695C959.93 350.416 959.07 349.436 957.927 348.754C956.783 348.065 955.359 347.721 953.655 347.721H949.436V364.852ZM974.876 367.536C973.3 367.536 971.939 367.188 970.796 366.492C969.66 365.789 968.783 364.809 968.165 363.552C967.554 362.288 967.248 360.817 967.248 359.141C967.248 357.465 967.554 355.988 968.165 354.71C968.783 353.424 969.642 352.423 970.743 351.705C971.851 350.981 973.143 350.619 974.621 350.619C975.473 350.619 976.314 350.761 977.145 351.045C977.976 351.329 978.733 351.79 979.415 352.43C980.096 353.062 980.64 353.9 981.045 354.944C981.449 355.988 981.652 357.273 981.652 358.8V359.866H969.038V357.692H979.095C979.095 356.769 978.91 355.945 978.541 355.221C978.179 354.496 977.66 353.925 976.986 353.506C976.318 353.087 975.53 352.877 974.621 352.877C973.619 352.877 972.753 353.126 972.021 353.623C971.297 354.113 970.739 354.752 970.349 355.54C969.958 356.329 969.763 357.174 969.763 358.076V359.525C969.763 360.761 969.976 361.808 970.402 362.668C970.835 363.52 971.435 364.17 972.202 364.617C972.969 365.058 973.861 365.278 974.876 365.278C975.537 365.278 976.133 365.185 976.666 365.001C977.206 364.809 977.671 364.525 978.062 364.148C978.452 363.765 978.754 363.289 978.967 362.721L981.396 363.403C981.14 364.227 980.711 364.951 980.107 365.576C979.503 366.194 978.758 366.677 977.87 367.025C976.982 367.366 975.984 367.536 974.876 367.536ZM998.359 350.832L992.308 367.195H989.751L983.7 350.832H986.427L990.944 363.871H991.115L995.632 350.832H998.359ZM1007.95 367.536C1006.38 367.536 1005.02 367.188 1003.87 366.492C1002.74 365.789 1001.86 364.809 1001.24 363.552C1000.63 362.288 1000.32 360.817 1000.32 359.141C1000.32 357.465 1000.63 355.988 1001.24 354.71C1001.86 353.424 1002.72 352.423 1003.82 351.705C1004.93 350.981 1006.22 350.619 1007.7 350.619C1008.55 350.619 1009.39 350.761 1010.22 351.045C1011.05 351.329 1011.81 351.79 1012.49 352.43C1013.17 353.062 1013.72 353.9 1014.12 354.944C1014.53 355.988 1014.73 357.273 1014.73 358.8V359.866H1002.11V357.692H1012.17C1012.17 356.769 1011.99 355.945 1011.62 355.221C1011.26 354.496 1010.74 353.925 1010.06 353.506C1009.39 353.087 1008.61 352.877 1007.7 352.877C1006.7 352.877 1005.83 353.126 1005.1 353.623C1004.37 354.113 1003.82 354.752 1003.42 355.54C1003.03 356.329 1002.84 357.174 1002.84 358.076V359.525C1002.84 360.761 1003.05 361.808 1003.48 362.668C1003.91 363.52 1004.51 364.17 1005.28 364.617C1006.05 365.058 1006.94 365.278 1007.95 365.278C1008.61 365.278 1009.21 365.185 1009.74 365.001C1010.28 364.809 1010.75 364.525 1011.14 364.148C1011.53 363.765 1011.83 363.289 1012.04 362.721L1014.47 363.403C1014.22 364.227 1013.79 364.951 1013.18 365.576C1012.58 366.194 1011.83 366.677 1010.95 367.025C1010.06 367.366 1009.06 367.536 1007.95 367.536ZM1021.07 345.377V367.195H1018.55V345.377H1021.07ZM1032.32 367.536C1030.84 367.536 1029.55 367.185 1028.43 366.482C1027.32 365.778 1026.46 364.795 1025.83 363.531C1025.21 362.266 1024.9 360.789 1024.9 359.099C1024.9 357.394 1025.21 355.906 1025.83 354.635C1026.46 353.364 1027.32 352.376 1028.43 351.673C1029.55 350.97 1030.84 350.619 1032.32 350.619C1033.8 350.619 1035.09 350.97 1036.2 351.673C1037.31 352.376 1038.18 353.364 1038.8 354.635C1039.42 355.906 1039.73 357.394 1039.73 359.099C1039.73 360.789 1039.42 362.266 1038.8 363.531C1038.18 364.795 1037.31 365.778 1036.2 366.482C1035.09 367.185 1033.8 367.536 1032.32 367.536ZM1032.32 365.278C1033.44 365.278 1034.36 364.99 1035.09 364.415C1035.81 363.839 1036.35 363.083 1036.7 362.146C1037.05 361.208 1037.22 360.192 1037.22 359.099C1037.22 358.005 1037.05 356.986 1036.7 356.041C1036.35 355.097 1035.81 354.333 1035.09 353.751C1034.36 353.168 1033.44 352.877 1032.32 352.877C1031.2 352.877 1030.27 353.168 1029.55 353.751C1028.83 354.333 1028.29 355.097 1027.94 356.041C1027.59 356.986 1027.42 358.005 1027.42 359.099C1027.42 360.192 1027.59 361.208 1027.94 362.146C1028.29 363.083 1028.83 363.839 1029.55 364.415C1030.27 364.99 1031.2 365.278 1032.32 365.278ZM1043.57 373.332V350.832H1046V353.431H1046.3C1046.48 353.147 1046.74 352.785 1047.07 352.344C1047.4 351.897 1047.88 351.499 1048.49 351.151C1049.12 350.796 1049.96 350.619 1051.03 350.619C1052.41 350.619 1053.62 350.963 1054.67 351.652C1055.72 352.341 1056.54 353.317 1057.13 354.582C1057.72 355.846 1058.02 357.337 1058.02 359.056C1058.02 360.789 1057.72 362.291 1057.13 363.562C1056.54 364.827 1055.73 365.807 1054.68 366.503C1053.64 367.192 1052.44 367.536 1051.07 367.536C1050.02 367.536 1049.18 367.362 1048.55 367.014C1047.92 366.659 1047.43 366.258 1047.09 365.81C1046.75 365.356 1046.48 364.979 1046.3 364.681H1046.09V373.332H1043.57ZM1046.04 359.013C1046.04 360.249 1046.22 361.339 1046.59 362.284C1046.95 363.222 1047.48 363.957 1048.17 364.489C1048.87 365.015 1049.72 365.278 1050.73 365.278C1051.78 365.278 1052.66 365.001 1053.36 364.447C1054.07 363.886 1054.61 363.133 1054.96 362.188C1055.32 361.237 1055.5 360.178 1055.5 359.013C1055.5 357.863 1055.33 356.826 1054.97 355.903C1054.62 354.972 1054.09 354.237 1053.38 353.697C1052.68 353.151 1051.8 352.877 1050.73 352.877C1049.71 352.877 1048.85 353.136 1048.15 353.655C1047.46 354.166 1046.93 354.884 1046.58 355.807C1046.22 356.723 1046.04 357.792 1046.04 359.013ZM1068.71 367.536C1067.14 367.536 1065.78 367.188 1064.63 366.492C1063.5 365.789 1062.62 364.809 1062 363.552C1061.39 362.288 1061.09 360.817 1061.09 359.141C1061.09 357.465 1061.39 355.988 1062 354.71C1062.62 353.424 1063.48 352.423 1064.58 351.705C1065.69 350.981 1066.98 350.619 1068.46 350.619C1069.31 350.619 1070.15 350.761 1070.98 351.045C1071.81 351.329 1072.57 351.79 1073.25 352.43C1073.93 353.062 1074.48 353.9 1074.88 354.944C1075.29 355.988 1075.49 357.273 1075.49 358.8V359.866H1062.88V357.692H1072.93C1072.93 356.769 1072.75 355.945 1072.38 355.221C1072.02 354.496 1071.5 353.925 1070.82 353.506C1070.16 353.087 1069.37 352.877 1068.46 352.877C1067.46 352.877 1066.59 353.126 1065.86 353.623C1065.13 354.113 1064.58 354.752 1064.19 355.54C1063.8 356.329 1063.6 357.174 1063.6 358.076V359.525C1063.6 360.761 1063.81 361.808 1064.24 362.668C1064.67 363.52 1065.27 364.17 1066.04 364.617C1066.81 365.058 1067.7 365.278 1068.71 365.278C1069.37 365.278 1069.97 365.185 1070.5 365.001C1071.04 364.809 1071.51 364.525 1071.9 364.148C1072.29 363.765 1072.59 363.289 1072.81 362.721L1075.23 363.403C1074.98 364.227 1074.55 364.951 1073.95 365.576C1073.34 366.194 1072.6 366.677 1071.71 367.025C1070.82 367.366 1069.82 367.536 1068.71 367.536ZM1079.31 367.195V350.832H1081.74V353.303H1081.91C1082.21 352.494 1082.75 351.837 1083.53 351.332C1084.31 350.828 1085.2 350.576 1086.18 350.576C1086.36 350.576 1086.59 350.58 1086.87 350.587C1087.14 350.594 1087.35 350.604 1087.5 350.619V353.175C1087.41 353.154 1087.22 353.122 1086.91 353.08C1086.61 353.03 1086.3 353.005 1085.96 353.005C1085.17 353.005 1084.46 353.172 1083.83 353.506C1083.21 353.832 1082.72 354.287 1082.36 354.869C1082.01 355.445 1081.83 356.102 1081.83 356.84V367.195H1079.31Z" fill="black"/>
<path d="M532.595 488.322V466.504H539.967C541.671 466.504 543.071 466.795 544.164 467.378C545.258 467.953 546.068 468.745 546.593 469.753C547.119 470.762 547.382 471.909 547.382 473.194C547.382 474.48 547.119 475.62 546.593 476.614C546.068 477.608 545.262 478.39 544.175 478.958C543.088 479.519 541.7 479.8 540.009 479.8H534.044V477.413H539.924C541.089 477.413 542.027 477.243 542.737 476.902C543.454 476.561 543.973 476.078 544.292 475.453C544.619 474.821 544.782 474.068 544.782 473.194C544.782 472.321 544.619 471.557 544.292 470.904C543.965 470.251 543.443 469.746 542.726 469.391C542.009 469.029 541.061 468.848 539.882 468.848H535.237V488.322H532.595ZM542.865 478.521L548.234 488.322H545.166L539.882 478.521H542.865ZM558.128 488.663C556.552 488.663 555.191 488.315 554.048 487.619C552.912 486.916 552.034 485.936 551.417 484.679C550.806 483.415 550.5 481.944 550.5 480.268C550.5 478.592 550.806 477.115 551.417 475.836C552.034 474.551 552.894 473.55 553.995 472.832C555.103 472.108 556.395 471.746 557.873 471.746C558.725 471.746 559.566 471.888 560.397 472.172C561.228 472.456 561.985 472.917 562.667 473.557C563.348 474.189 563.892 475.027 564.297 476.071C564.701 477.115 564.904 478.4 564.904 479.927V480.993H552.29V478.819H562.347C562.347 477.896 562.162 477.072 561.793 476.348C561.431 475.623 560.912 475.052 560.238 474.633C559.57 474.214 558.782 474.004 557.873 474.004C556.871 474.004 556.005 474.253 555.273 474.75C554.549 475.24 553.991 475.879 553.601 476.667C553.21 477.456 553.015 478.301 553.015 479.203V480.652C553.015 481.888 553.228 482.935 553.654 483.795C554.087 484.647 554.687 485.297 555.454 485.744C556.221 486.184 557.113 486.405 558.128 486.405C558.789 486.405 559.385 486.312 559.918 486.128C560.458 485.936 560.923 485.652 561.314 485.275C561.704 484.892 562.006 484.416 562.219 483.848L564.648 484.53C564.392 485.354 563.963 486.078 563.359 486.703C562.755 487.321 562.01 487.804 561.122 488.152C560.234 488.493 559.236 488.663 558.128 488.663ZM568.728 494.459V471.959H571.157V474.558H571.456C571.64 474.274 571.896 473.912 572.223 473.471C572.557 473.024 573.032 472.626 573.65 472.278C574.275 471.923 575.12 471.746 576.186 471.746C577.564 471.746 578.778 472.09 579.829 472.779C580.88 473.468 581.701 474.444 582.29 475.709C582.88 476.973 583.174 478.464 583.174 480.183C583.174 481.916 582.88 483.418 582.29 484.689C581.701 485.954 580.884 486.934 579.84 487.63C578.796 488.319 577.592 488.663 576.228 488.663C575.177 488.663 574.336 488.489 573.704 488.141C573.071 487.786 572.585 487.385 572.244 486.937C571.903 486.483 571.64 486.106 571.456 485.808H571.243V494.459H568.728ZM571.2 480.14C571.2 481.376 571.381 482.466 571.743 483.411C572.106 484.349 572.635 485.084 573.331 485.616C574.027 486.142 574.879 486.405 575.887 486.405C576.939 486.405 577.816 486.128 578.519 485.574C579.229 485.013 579.762 484.26 580.117 483.315C580.479 482.363 580.66 481.305 580.66 480.14C580.66 478.99 580.483 477.953 580.128 477.03C579.78 476.099 579.25 475.364 578.54 474.824C577.837 474.278 576.953 474.004 575.887 474.004C574.865 474.004 574.005 474.263 573.309 474.782C572.613 475.293 572.088 476.01 571.733 476.934C571.378 477.85 571.2 478.919 571.2 480.14ZM587.01 488.322V471.959H589.439V474.43H589.609C589.907 473.621 590.447 472.964 591.228 472.459C592.01 471.955 592.89 471.703 593.87 471.703C594.055 471.703 594.286 471.706 594.563 471.714C594.84 471.721 595.049 471.731 595.191 471.746V474.302C595.106 474.281 594.911 474.249 594.606 474.206C594.307 474.157 593.991 474.132 593.657 474.132C592.862 474.132 592.152 474.299 591.527 474.633C590.909 474.959 590.419 475.414 590.057 475.996C589.701 476.572 589.524 477.229 589.524 477.967V488.322H587.01ZM604.534 488.663C602.958 488.663 601.598 488.315 600.454 487.619C599.318 486.916 598.441 485.936 597.823 484.679C597.212 483.415 596.907 481.944 596.907 480.268C596.907 478.592 597.212 477.115 597.823 475.836C598.441 474.551 599.3 473.55 600.401 472.832C601.509 472.108 602.802 471.746 604.279 471.746C605.131 471.746 605.973 471.888 606.804 472.172C607.635 472.456 608.391 472.917 609.073 473.557C609.755 474.189 610.298 475.027 610.703 476.071C611.108 477.115 611.31 478.4 611.31 479.927V480.993H598.696V478.819H608.753C608.753 477.896 608.569 477.072 608.199 476.348C607.837 475.623 607.319 475.052 606.644 474.633C605.976 474.214 605.188 474.004 604.279 474.004C603.277 474.004 602.411 474.253 601.679 474.75C600.955 475.24 600.397 475.879 600.007 476.667C599.616 477.456 599.421 478.301 599.421 479.203V480.652C599.421 481.888 599.634 482.935 600.06 483.795C600.493 484.647 601.093 485.297 601.86 485.744C602.628 486.184 603.519 486.405 604.534 486.405C605.195 486.405 605.792 486.312 606.324 486.128C606.864 485.936 607.329 485.652 607.72 485.275C608.11 484.892 608.412 484.416 608.625 483.848L611.054 484.53C610.799 485.354 610.369 486.078 609.765 486.703C609.162 487.321 608.416 487.804 607.528 488.152C606.64 488.493 605.642 488.663 604.534 488.663ZM626.726 475.623L624.467 476.263C624.325 475.886 624.115 475.52 623.838 475.165C623.569 474.803 623.199 474.505 622.731 474.27C622.262 474.036 621.662 473.919 620.93 473.919C619.929 473.919 619.094 474.15 618.427 474.611C617.766 475.066 617.436 475.645 617.436 476.348C617.436 476.973 617.663 477.466 618.118 477.829C618.572 478.191 619.282 478.493 620.248 478.734L622.677 479.331C624.14 479.686 625.231 480.229 625.948 480.961C626.665 481.685 627.024 482.619 627.024 483.763C627.024 484.7 626.754 485.538 626.214 486.277C625.682 487.015 624.936 487.598 623.977 488.024C623.018 488.45 621.903 488.663 620.632 488.663C618.963 488.663 617.581 488.301 616.488 487.577C615.394 486.852 614.701 485.794 614.41 484.402L616.797 483.805C617.024 484.686 617.454 485.346 618.086 485.787C618.725 486.227 619.559 486.447 620.589 486.447C621.761 486.447 622.691 486.199 623.38 485.702C624.076 485.197 624.424 484.594 624.424 483.89C624.424 483.322 624.226 482.846 623.828 482.463C623.43 482.072 622.819 481.781 621.995 481.589L619.268 480.95C617.77 480.595 616.669 480.045 615.966 479.299C615.27 478.546 614.922 477.605 614.922 476.476C614.922 475.552 615.181 474.736 615.699 474.025C616.225 473.315 616.939 472.758 617.841 472.353C618.75 471.948 619.78 471.746 620.93 471.746C622.549 471.746 623.821 472.101 624.744 472.811C625.674 473.521 626.335 474.459 626.726 475.623ZM637.669 488.663C636.093 488.663 634.732 488.315 633.589 487.619C632.453 486.916 631.576 485.936 630.958 484.679C630.347 483.415 630.041 481.944 630.041 480.268C630.041 478.592 630.347 477.115 630.958 475.836C631.576 474.551 632.435 473.55 633.536 472.832C634.644 472.108 635.936 471.746 637.414 471.746C638.266 471.746 639.107 471.888 639.938 472.172C640.769 472.456 641.526 472.917 642.208 473.557C642.889 474.189 643.433 475.027 643.838 476.071C644.242 477.115 644.445 478.4 644.445 479.927V480.993H631.831V478.819H641.888C641.888 477.896 641.703 477.072 641.334 476.348C640.972 475.623 640.453 475.052 639.779 474.633C639.111 474.214 638.323 474.004 637.414 474.004C636.412 474.004 635.546 474.253 634.814 474.75C634.09 475.24 633.532 475.879 633.142 476.667C632.751 477.456 632.556 478.301 632.556 479.203V480.652C632.556 481.888 632.769 482.935 633.195 483.795C633.628 484.647 634.228 485.297 634.995 485.744C635.762 486.184 636.654 486.405 637.669 486.405C638.33 486.405 638.926 486.312 639.459 486.128C639.999 485.936 640.464 485.652 640.855 485.275C641.245 484.892 641.547 484.416 641.76 483.848L644.189 484.53C643.933 485.354 643.504 486.078 642.9 486.703C642.296 487.321 641.551 487.804 640.663 488.152C639.775 488.493 638.777 488.663 637.669 488.663ZM650.784 478.479V488.322H648.269V471.959H650.698V474.515H650.911C651.295 473.684 651.877 473.017 652.659 472.513C653.44 472.001 654.448 471.746 655.684 471.746C656.792 471.746 657.762 471.973 658.593 472.427C659.424 472.875 660.07 473.557 660.531 474.473C660.993 475.382 661.224 476.532 661.224 477.925V488.322H658.71V478.095C658.71 476.809 658.376 475.808 657.708 475.091C657.041 474.366 656.125 474.004 654.96 474.004C654.157 474.004 653.44 474.178 652.808 474.526C652.183 474.874 651.689 475.382 651.327 476.05C650.965 476.717 650.784 477.527 650.784 478.479ZM672.935 471.959V474.089H664.455V471.959H672.935ZM666.926 468.038H669.44V483.635C669.44 484.345 669.543 484.878 669.749 485.233C669.962 485.581 670.232 485.815 670.559 485.936C670.893 486.05 671.244 486.106 671.614 486.106C671.891 486.106 672.118 486.092 672.295 486.064C672.473 486.028 672.615 486 672.722 485.979L673.233 488.237C673.063 488.301 672.825 488.365 672.519 488.429C672.214 488.5 671.827 488.535 671.358 488.535C670.648 488.535 669.952 488.383 669.27 488.077C668.595 487.772 668.034 487.307 667.587 486.682C667.146 486.057 666.926 485.268 666.926 484.317V468.038ZM681.532 488.706C680.495 488.706 679.554 488.51 678.709 488.12C677.864 487.722 677.193 487.15 676.695 486.405C676.198 485.652 675.95 484.743 675.95 483.677C675.95 482.74 676.134 481.98 676.504 481.398C676.873 480.808 677.367 480.346 677.984 480.013C678.602 479.679 679.284 479.43 680.03 479.267C680.783 479.096 681.539 478.961 682.299 478.862C683.293 478.734 684.099 478.638 684.717 478.574C685.342 478.503 685.797 478.386 686.081 478.223C686.372 478.059 686.518 477.775 686.518 477.371V477.285C686.518 476.234 686.23 475.417 685.655 474.835C685.087 474.253 684.224 473.961 683.066 473.961C681.866 473.961 680.925 474.224 680.243 474.75C679.561 475.275 679.082 475.836 678.805 476.433L676.418 475.581C676.845 474.586 677.413 473.812 678.123 473.258C678.84 472.697 679.621 472.307 680.467 472.086C681.319 471.859 682.157 471.746 682.981 471.746C683.506 471.746 684.11 471.809 684.792 471.937C685.481 472.058 686.145 472.31 686.784 472.694C687.43 473.077 687.967 473.656 688.393 474.43C688.819 475.204 689.032 476.241 689.032 477.541V488.322H686.518V486.106H686.39C686.22 486.461 685.935 486.841 685.538 487.246C685.14 487.651 684.611 487.996 683.95 488.28C683.29 488.564 682.484 488.706 681.532 488.706ZM681.916 486.447C682.91 486.447 683.748 486.252 684.43 485.861C685.119 485.471 685.637 484.966 685.985 484.349C686.34 483.731 686.518 483.081 686.518 482.399V480.098C686.411 480.226 686.177 480.343 685.815 480.449C685.46 480.549 685.048 480.638 684.579 480.716C684.117 480.787 683.666 480.851 683.226 480.907C682.793 480.957 682.441 481 682.171 481.035C681.518 481.121 680.907 481.259 680.339 481.451C679.778 481.635 679.323 481.916 678.975 482.292C678.634 482.662 678.464 483.166 678.464 483.805C678.464 484.679 678.787 485.339 679.433 485.787C680.087 486.227 680.914 486.447 681.916 486.447ZM700.737 471.959V474.089H692.257V471.959H700.737ZM694.729 468.038H697.243V483.635C697.243 484.345 697.346 484.878 697.552 485.233C697.765 485.581 698.035 485.815 698.362 485.936C698.696 486.05 699.047 486.106 699.416 486.106C699.693 486.106 699.921 486.092 700.098 486.064C700.276 486.028 700.418 486 700.524 485.979L701.036 488.237C700.865 488.301 700.627 488.365 700.322 488.429C700.017 488.5 699.629 488.535 699.161 488.535C698.451 488.535 697.754 488.383 697.073 488.077C696.398 487.772 695.837 487.307 695.389 486.682C694.949 486.057 694.729 485.268 694.729 484.317V468.038ZM704.519 488.322V471.959H707.034V488.322H704.519ZM705.798 469.231C705.308 469.231 704.885 469.064 704.53 468.731C704.182 468.397 704.008 467.996 704.008 467.527C704.008 467.058 704.182 466.657 704.53 466.323C704.885 465.989 705.308 465.822 705.798 465.822C706.288 465.822 706.707 465.989 707.055 466.323C707.41 466.657 707.588 467.058 707.588 467.527C707.588 467.996 707.41 468.397 707.055 468.731C706.707 469.064 706.288 469.231 705.798 469.231ZM725.019 471.959L718.968 488.322H716.411L710.36 471.959H713.087L717.604 484.998H717.775L722.292 471.959H725.019ZM734.613 488.663C733.036 488.663 731.676 488.315 730.532 487.619C729.396 486.916 728.519 485.936 727.901 484.679C727.29 483.415 726.985 481.944 726.985 480.268C726.985 478.592 727.29 477.115 727.901 475.836C728.519 474.551 729.378 473.55 730.479 472.832C731.587 472.108 732.88 471.746 734.357 471.746C735.209 471.746 736.051 471.888 736.882 472.172C737.713 472.456 738.469 472.917 739.151 473.557C739.833 474.189 740.376 475.027 740.781 476.071C741.186 477.115 741.388 478.4 741.388 479.927V480.993H728.775V478.819H738.831C738.831 477.896 738.647 477.072 738.277 476.348C737.915 475.623 737.397 475.052 736.722 474.633C736.054 474.214 735.266 474.004 734.357 474.004C733.356 474.004 732.489 474.253 731.758 474.75C731.033 475.24 730.476 475.879 730.085 476.667C729.694 477.456 729.499 478.301 729.499 479.203V480.652C729.499 481.888 729.712 482.935 730.138 483.795C730.571 484.647 731.172 485.297 731.939 485.744C732.706 486.184 733.597 486.405 734.613 486.405C735.273 486.405 735.87 486.312 736.402 486.128C736.942 485.936 737.407 485.652 737.798 485.275C738.189 484.892 738.49 484.416 738.704 483.848L741.133 484.53C740.877 485.354 740.447 486.078 739.843 486.703C739.24 487.321 738.494 487.804 737.606 488.152C736.718 488.493 735.721 488.663 734.613 488.663ZM760.298 488.663C758.821 488.663 757.525 488.312 756.409 487.608C755.302 486.905 754.435 485.922 753.81 484.657C753.192 483.393 752.883 481.916 752.883 480.226C752.883 478.521 753.192 477.033 753.81 475.762C754.435 474.491 755.302 473.503 756.409 472.8C757.525 472.097 758.821 471.746 760.298 471.746C761.775 471.746 763.068 472.097 764.176 472.8C765.291 473.503 766.157 474.491 766.775 475.762C767.4 477.033 767.713 478.521 767.713 480.226C767.713 481.916 767.4 483.393 766.775 484.657C766.157 485.922 765.291 486.905 764.176 487.608C763.068 488.312 761.775 488.663 760.298 488.663ZM760.298 486.405C761.42 486.405 762.343 486.117 763.068 485.542C763.792 484.966 764.329 484.21 764.677 483.273C765.025 482.335 765.199 481.319 765.199 480.226C765.199 479.132 765.025 478.113 764.677 477.168C764.329 476.224 763.792 475.46 763.068 474.878C762.343 474.295 761.42 474.004 760.298 474.004C759.176 474.004 758.253 474.295 757.528 474.878C756.804 475.46 756.267 476.224 755.919 477.168C755.571 478.113 755.397 479.132 755.397 480.226C755.397 481.319 755.571 482.335 755.919 483.273C756.267 484.21 756.804 484.966 757.528 485.542C758.253 486.117 759.176 486.405 760.298 486.405ZM778.838 471.959V474.089H770.017V471.959H778.838ZM772.659 488.322V469.7C772.659 468.763 772.879 467.981 773.319 467.356C773.759 466.731 774.331 466.263 775.034 465.95C775.737 465.638 776.48 465.481 777.261 465.481C777.879 465.481 778.383 465.531 778.774 465.631C779.164 465.73 779.455 465.822 779.647 465.907L778.923 468.081C778.795 468.038 778.617 467.985 778.39 467.921C778.17 467.857 777.879 467.825 777.517 467.825C776.686 467.825 776.085 468.035 775.716 468.454C775.354 468.873 775.173 469.487 775.173 470.297V488.322H772.659Z" fill="black"/>
<path d="M806.679 433.866H798.183V442.557H806.679V433.866Z" fill="black"/>
<path d="M815.176 442.557H806.679V451.248H815.176V442.557Z" fill="white"/>
<path d="M823.672 477.322H815.176V486.014H823.672V477.322Z" fill="white"/>
<path d="M832.169 468.631H823.672L823.672 477.322H832.169V468.631Z" fill="white"/>
<path d="M832.169 486.014H823.672L823.672 494.705H832.169V486.014Z" fill="white"/>
<path d="M832.169 494.705H823.672V503.396H832.169V494.705Z" fill="white"/>
<path d="M832.169 503.396H823.672V512.087H832.169V503.396Z" fill="white"/>
<path d="M840.666 468.631H832.169V477.322H840.666V468.631Z" fill="white"/>
<path d="M849.162 477.322H840.666L840.666 486.014H849.162V477.322Z" fill="white"/>
<path d="M849.162 486.014H840.666V494.705H849.162V486.014Z" fill="white"/>
<path d="M849.162 494.705H840.666V503.396H849.162V494.705Z" fill="white"/>
<path d="M849.162 503.396H840.666V512.087H849.162V503.396Z" fill="white"/>
<path d="M815.176 451.248H806.679V459.94H815.176V451.248Z" fill="white"/>
<path d="M815.176 459.94H806.679V468.631H815.176V459.94Z" fill="white"/>
<path d="M815.176 468.631H806.679V477.322H815.176V468.631Z" fill="white"/>
<path d="M815.176 477.322H806.679V486.014H815.176V477.322Z" fill="white"/>
<path d="M815.176 486.014H806.679V494.705H815.176V486.014Z" fill="white"/>
<path d="M815.176 494.705H806.679V503.396H815.176V494.705Z" fill="white"/>
<path d="M815.176 503.396H806.679V512.087H815.176V503.396Z" fill="white"/>
<path d="M806.679 442.557H798.183V451.248H806.679V442.557Z" fill="black"/>
<path d="M806.679 451.248H798.183V459.94H806.679V451.248Z" fill="black"/>
<path d="M806.679 459.94H798.183V468.631H806.679V459.94Z" fill="black"/>
<path d="M806.679 468.631H798.183V477.322H806.679V468.631Z" fill="black"/>
<path d="M806.679 477.322H798.183V486.014H806.679V477.322Z" fill="black"/>
<path d="M806.679 486.014H798.183V494.705H806.679V486.014Z" fill="black"/>
<path d="M806.679 494.705H798.183V503.396H806.679V494.705Z" fill="black"/>
<path d="M806.679 503.396H798.183V512.087H806.679V503.396Z" fill="black"/>
<path d="M806.679 512.087H798.183V520.779H806.679V512.087Z" fill="black"/>
<path d="M815.176 512.087H806.679V520.779H815.176V512.087Z" fill="black"/>
<path d="M823.672 512.087H815.176V520.779H823.672L823.672 512.087Z" fill="black"/>
<path d="M832.169 512.087H823.672L823.672 520.779H832.169V512.087Z" fill="black"/>
<path d="M840.666 512.087H832.169V520.779H840.666L840.666 512.087Z" fill="black"/>
<path d="M849.162 512.087H840.666L840.666 520.779H849.162V512.087Z" fill="black"/>
<path d="M857.659 512.087L849.162 512.087V520.779H857.659V512.087Z" fill="black"/>
<path d="M857.659 503.396H849.162V512.087L857.659 512.087V503.396Z" fill="black"/>
<path d="M857.659 494.705L849.162 494.705V503.396H857.659V494.705Z" fill="black"/>
<path d="M857.659 486.014H849.162V494.705L857.659 494.705V486.014Z" fill="black"/>
<path d="M857.659 477.322H849.162V486.014H857.659V477.322Z" fill="black"/>
<path d="M857.659 468.631H849.162L849.162 477.322H857.659V468.631Z" fill="black"/>
<path d="M857.659 459.94H849.162V468.631H857.659V459.94Z" fill="black"/>
<path d="M857.659 451.248H849.162V459.94H857.659V451.248Z" fill="black"/>
<path d="M823.672 442.557H815.176V451.248H823.672V442.557Z" fill="black"/>
<path d="M832.169 442.557H823.672V451.248H832.169V442.557Z" fill="black"/>
<path d="M840.666 442.557H832.169V451.248H840.666V442.557Z" fill="black"/>
<path d="M849.162 442.557H840.666V451.248H849.162L849.162 442.557Z" fill="black"/>
<path d="M849.162 451.248H840.666L840.666 459.94H849.162V451.248Z" fill="black"/>
<path d="M849.162 459.94H840.666L840.666 468.631H849.162V459.94Z" fill="black"/>
<path d="M849.162 468.631H840.666V477.322H849.162L849.162 468.631Z" fill="black"/>
<path d="M832.169 477.322H823.672V486.014H832.169V477.322Z" fill="black"/>
<path d="M840.666 477.322H832.169V486.014H840.666L840.666 477.322Z" fill="black"/>
<path d="M840.666 486.014H832.169V494.705H840.666V486.014Z" fill="black"/>
<path d="M840.666 494.705H832.169V503.396H840.666V494.705Z" fill="black"/>
<path d="M840.666 503.396H832.169V512.087H840.666V503.396Z" fill="black"/>
<path d="M823.672 486.014H815.176V494.705H823.672L823.672 486.014Z" fill="black"/>
<path d="M823.672 494.705H815.176V503.396H823.672V494.705Z" fill="black"/>
<path d="M823.672 503.396H815.176V512.087H823.672V503.396Z" fill="black"/>
<path d="M823.672 468.631H815.176V477.322H823.672L823.672 468.631Z" fill="black"/>
<path d="M823.672 459.94H815.176V468.631H823.672L823.672 459.94Z" fill="black"/>
<path d="M823.672 451.248H815.176V459.94H823.672V451.248Z" fill="black"/>
<path d="M832.169 451.248H823.672V459.94H832.169V451.248Z" fill="black"/>
<path d="M840.666 451.248H832.169V459.94H840.666L840.666 451.248Z" fill="black"/>
<path d="M832.169 459.94H823.672L823.672 468.631H832.169V459.94Z" fill="black"/>
<path d="M840.666 459.94H832.169V468.631H840.666L840.666 459.94Z" fill="black"/>
<path d="M857.659 442.557H849.162L849.162 451.248H857.659V442.557Z" fill="black"/>
<path d="M857.659 433.866H849.162L849.162 442.557H857.659V433.866Z" fill="black"/>
<path d="M815.176 433.866H806.679V442.557H815.176V433.866Z" fill="black"/>
<path d="M823.672 433.866H815.176V442.557H823.672V433.866Z" fill="black"/>
<path d="M832.169 433.866H823.672V442.557H832.169V433.866Z" fill="black"/>
<path d="M840.666 433.866H832.169V442.557H840.666V433.866Z" fill="black"/>
<path d="M849.162 433.866H840.666V442.557H849.162L849.162 433.866Z" fill="black"/>
<path d="M871.656 489.876V444.927H879.744V463.956H900.435V444.927H908.545V489.876H900.435V470.782H879.744V489.876H871.656Z" fill="black"/>
<path d="M916.379 489.876V456.165H924.272V489.876H916.379ZM920.347 451.38C919.097 451.38 918.022 450.963 917.121 450.129C916.22 449.28 915.769 448.263 915.769 447.078C915.769 445.878 916.22 444.862 917.121 444.028C918.022 443.179 919.097 442.755 920.347 442.755C921.612 442.755 922.688 443.179 923.574 444.028C924.475 444.862 924.926 445.878 924.926 447.078C924.926 448.263 924.475 449.28 923.574 450.129C922.688 450.963 921.612 451.38 920.347 451.38Z" fill="black"/>
<path d="M930.16 451.753V444.927H965.785V451.753H951.984V489.876H943.961V451.753H930.16Z" fill="black"/>
<path d="M972.039 489.876V444.927H1001.08V451.753H980.127V463.956H999.575V470.782H980.127V483.051H1001.25V489.876H972.039Z" fill="black"/>
<path d="M1046.94 460.093H1038.78C1038.55 458.747 1038.12 457.555 1037.5 456.516C1036.87 455.462 1036.09 454.57 1035.16 453.838C1034.23 453.107 1033.17 452.558 1031.98 452.192C1030.8 451.812 1029.53 451.621 1028.16 451.621C1025.74 451.621 1023.59 452.236 1021.71 453.465C1019.84 454.679 1018.37 456.465 1017.31 458.82C1016.25 461.161 1015.72 464.022 1015.72 467.402C1015.72 470.84 1016.25 473.737 1017.31 476.093C1018.38 478.434 1019.85 480.205 1021.71 481.404C1023.59 482.59 1025.73 483.182 1028.14 483.182C1029.48 483.182 1030.73 483.007 1031.89 482.656C1033.07 482.29 1034.12 481.756 1035.05 481.053C1036 480.351 1036.79 479.488 1037.43 478.463C1038.08 477.439 1038.54 476.269 1038.78 474.952L1046.94 474.996C1046.63 477.132 1045.97 479.137 1044.95 481.009C1043.95 482.882 1042.63 484.536 1041.01 485.97C1039.38 487.389 1037.47 488.501 1035.29 489.306C1033.11 490.096 1030.69 490.491 1028.03 490.491C1024.11 490.491 1020.61 489.576 1017.53 487.747C1014.44 485.918 1012.02 483.277 1010.24 479.824C1008.47 476.371 1007.58 472.23 1007.58 467.402C1007.58 462.559 1008.48 458.418 1010.27 454.979C1012.05 451.526 1014.49 448.885 1017.57 447.056C1020.65 445.227 1024.14 444.313 1028.03 444.313C1030.52 444.313 1032.83 444.664 1034.97 445.366C1037.1 446.069 1039.01 447.1 1040.68 448.461C1042.35 449.807 1043.72 451.46 1044.8 453.421C1045.89 455.367 1046.6 457.591 1046.94 460.093Z" fill="black"/>
<path d="M1053.73 489.876V444.927H1061.82V463.956H1082.51V444.927H1090.62V489.876H1082.51V470.782H1061.82V489.876H1053.73Z" fill="black"/>
<path d="M886.113 499.953H883.056C882.968 499.448 882.808 499.001 882.573 498.611C882.339 498.216 882.047 497.882 881.698 497.607C881.35 497.333 880.952 497.127 880.505 496.99C880.063 496.847 879.586 496.776 879.074 496.776C878.164 496.776 877.357 497.007 876.654 497.467C875.951 497.923 875.4 498.592 875.002 499.476C874.605 500.354 874.406 501.426 874.406 502.694C874.406 503.983 874.605 505.07 875.002 505.953C875.406 506.831 875.956 507.495 876.654 507.945C877.357 508.389 878.161 508.611 879.066 508.611C879.567 508.611 880.036 508.546 880.472 508.414C880.914 508.277 881.309 508.076 881.658 507.813C882.012 507.55 882.309 507.226 882.549 506.842C882.794 506.458 882.963 506.019 883.056 505.525L886.113 505.541C885.999 506.343 885.751 507.094 885.369 507.797C884.993 508.499 884.5 509.119 883.89 509.657C883.279 510.189 882.565 510.606 881.748 510.908C880.93 511.204 880.022 511.352 879.025 511.352C877.553 511.352 876.24 511.009 875.084 510.323C873.929 509.637 873.018 508.647 872.354 507.352C871.689 506.057 871.356 504.504 871.356 502.694C871.356 500.878 871.691 499.325 872.362 498.035C873.032 496.74 873.945 495.75 875.101 495.064C876.256 494.378 877.564 494.035 879.025 494.035C879.957 494.035 880.824 494.167 881.625 494.43C882.426 494.694 883.14 495.081 883.767 495.591C884.394 496.096 884.909 496.716 885.312 497.451C885.721 498.181 885.988 499.015 886.113 499.953Z" fill="black"/>
<path d="M894.008 511.369C892.781 511.369 891.719 511.097 890.819 510.554C889.92 510.011 889.222 509.251 888.726 508.274C888.236 507.297 887.99 506.156 887.99 504.85C887.99 503.544 888.236 502.4 888.726 501.418C889.222 500.436 889.92 499.673 890.819 499.13C891.719 498.587 892.781 498.315 894.008 498.315C895.234 498.315 896.297 498.587 897.196 499.13C898.096 499.673 898.791 500.436 899.281 501.418C899.777 502.4 900.025 503.544 900.025 504.85C900.025 506.156 899.777 507.297 899.281 508.274C898.791 509.251 898.096 510.011 897.196 510.554C896.297 511.097 895.234 511.369 894.008 511.369ZM894.024 508.982C894.689 508.982 895.245 508.798 895.692 508.43C896.139 508.057 896.471 507.558 896.69 506.932C896.913 506.307 897.025 505.61 897.025 504.842C897.025 504.068 896.913 503.369 896.69 502.743C896.471 502.112 896.139 501.61 895.692 501.237C895.245 500.864 894.689 500.677 894.024 500.677C893.343 500.677 892.776 500.864 892.324 501.237C891.877 501.61 891.541 502.112 891.318 502.743C891.1 503.369 890.991 504.068 890.991 504.842C890.991 505.61 891.1 506.307 891.318 506.932C891.541 507.558 891.877 508.057 892.324 508.43C892.776 508.798 893.343 508.982 894.024 508.982Z" fill="black"/>
<path d="M902.307 511.122V498.48H905.177V500.587H905.308C905.536 499.857 905.929 499.295 906.485 498.9C907.046 498.499 907.687 498.299 908.406 498.299C908.57 498.299 908.752 498.307 908.954 498.323C909.161 498.334 909.333 498.354 909.469 498.381V501.122C909.344 501.078 909.145 501.039 908.872 501.007C908.605 500.968 908.346 500.949 908.096 500.949C907.556 500.949 907.071 501.067 906.64 501.303C906.215 501.533 905.88 501.854 905.635 502.266C905.389 502.677 905.267 503.152 905.267 503.69V511.122H902.307Z" fill="black"/>
<path d="M911.205 515.862V498.48H914.116V500.57H914.287C914.44 500.263 914.655 499.937 914.933 499.591C915.211 499.24 915.587 498.941 916.062 498.694C916.536 498.441 917.141 498.315 917.877 498.315C918.847 498.315 919.722 498.565 920.501 499.064C921.286 499.558 921.907 500.29 922.365 501.262C922.828 502.227 923.06 503.413 923.06 504.817C923.06 506.205 922.834 507.385 922.381 508.356C921.929 509.327 921.313 510.068 920.534 510.578C919.754 511.089 918.871 511.344 917.885 511.344C917.165 511.344 916.568 511.223 916.094 510.982C915.62 510.74 915.238 510.45 914.95 510.109C914.666 509.764 914.445 509.437 914.287 509.13H914.165V515.862H911.205ZM914.107 504.801C914.107 505.618 914.222 506.334 914.451 506.949C914.685 507.563 915.02 508.044 915.457 508.389C915.898 508.729 916.432 508.899 917.059 508.899C917.713 508.899 918.261 508.724 918.702 508.373C919.144 508.016 919.476 507.53 919.7 506.916C919.929 506.296 920.043 505.591 920.043 504.801C920.043 504.016 919.931 503.319 919.708 502.71C919.484 502.101 919.152 501.624 918.71 501.278C918.269 500.932 917.718 500.76 917.059 500.76C916.427 500.76 915.89 500.927 915.448 501.262C915.007 501.596 914.672 502.066 914.443 502.669C914.219 503.273 914.107 503.983 914.107 504.801Z" fill="black"/>
<path d="M930.842 511.369C929.616 511.369 928.553 511.097 927.654 510.554C926.754 510.011 926.056 509.251 925.56 508.274C925.07 507.297 924.825 506.156 924.825 504.85C924.825 503.544 925.07 502.4 925.56 501.418C926.056 500.436 926.754 499.673 927.654 499.13C928.553 498.587 929.616 498.315 930.842 498.315C932.068 498.315 933.131 498.587 934.031 499.13C934.93 499.673 935.625 500.436 936.115 501.418C936.611 502.4 936.859 503.544 936.859 504.85C936.859 506.156 936.611 507.297 936.115 508.274C935.625 509.251 934.93 510.011 934.031 510.554C933.131 511.097 932.068 511.369 930.842 511.369ZM930.858 508.982C931.523 508.982 932.079 508.798 932.526 508.43C932.973 508.057 933.306 507.558 933.524 506.932C933.747 506.307 933.859 505.61 933.859 504.842C933.859 504.068 933.747 503.369 933.524 502.743C933.306 502.112 932.973 501.61 932.526 501.237C932.079 500.864 931.523 500.677 930.858 500.677C930.177 500.677 929.61 500.864 929.158 501.237C928.711 501.61 928.376 502.112 928.152 502.743C927.934 503.369 927.825 504.068 927.825 504.842C927.825 505.61 927.934 506.307 928.152 506.932C928.376 507.558 928.711 508.057 929.158 508.43C929.61 508.798 930.177 508.982 930.858 508.982Z" fill="black"/>
<path d="M939.141 511.122V498.48H942.011V500.587H942.142C942.371 499.857 942.763 499.295 943.319 498.9C943.88 498.499 944.521 498.299 945.24 498.299C945.404 498.299 945.587 498.307 945.788 498.323C945.995 498.334 946.167 498.354 946.303 498.381V501.122C946.178 501.078 945.979 501.039 945.706 501.007C945.439 500.968 945.18 500.949 944.93 500.949C944.39 500.949 943.905 501.067 943.474 501.303C943.049 501.533 942.714 501.854 942.469 502.266C942.224 502.677 942.101 503.152 942.101 503.69V511.122H939.141Z" fill="black"/>
<path d="M951.428 511.377C950.632 511.377 949.916 511.234 949.278 510.949C948.646 510.658 948.144 510.23 947.774 509.665C947.408 509.1 947.226 508.403 947.226 507.574C947.226 506.861 947.357 506.271 947.618 505.805C947.88 505.338 948.237 504.965 948.689 504.686C949.142 504.406 949.651 504.194 950.218 504.052C950.79 503.904 951.382 503.797 951.992 503.731C952.728 503.654 953.325 503.585 953.783 503.525C954.241 503.459 954.573 503.36 954.78 503.229C954.993 503.092 955.099 502.88 955.099 502.595V502.546C955.099 501.926 954.917 501.445 954.551 501.105C954.186 500.765 953.66 500.595 952.973 500.595C952.248 500.595 951.673 500.754 951.248 501.072C950.829 501.391 950.545 501.766 950.398 502.2L947.635 501.805C947.853 501.037 948.212 500.395 948.714 499.879C949.215 499.358 949.828 498.968 950.553 498.71C951.278 498.447 952.08 498.315 952.957 498.315C953.562 498.315 954.164 498.387 954.764 498.529C955.363 498.672 955.911 498.908 956.407 499.237C956.903 499.561 957.301 500.002 957.601 500.562C957.906 501.122 958.059 501.821 958.059 502.661V511.122H955.214V509.385H955.115C954.936 509.736 954.682 510.065 954.355 510.373C954.034 510.675 953.627 510.919 953.137 511.105C952.652 511.286 952.082 511.377 951.428 511.377ZM952.197 509.188C952.791 509.188 953.306 509.07 953.742 508.834C954.178 508.592 954.513 508.274 954.748 507.879C954.987 507.484 955.107 507.053 955.107 506.587V505.097C955.015 505.174 954.857 505.245 954.633 505.311C954.415 505.377 954.17 505.434 953.897 505.484C953.625 505.533 953.355 505.577 953.088 505.616C952.821 505.654 952.589 505.687 952.393 505.714C951.951 505.775 951.556 505.873 951.207 506.011C950.859 506.148 950.583 506.34 950.382 506.587C950.18 506.828 950.079 507.141 950.079 507.525C950.079 508.074 950.278 508.488 950.676 508.768C951.074 509.048 951.581 509.188 952.197 509.188Z" fill="black"/>
<path d="M967.075 498.48V500.784H959.856V498.48H967.075ZM961.638 495.451H964.598V507.319C964.598 507.72 964.658 508.027 964.778 508.241C964.903 508.45 965.067 508.592 965.268 508.669C965.47 508.746 965.694 508.784 965.939 508.784C966.124 508.784 966.293 508.771 966.446 508.743C966.604 508.716 966.724 508.691 966.806 508.669L967.304 510.998C967.146 511.053 966.92 511.113 966.626 511.179C966.337 511.245 965.983 511.284 965.563 511.295C964.822 511.316 964.154 511.204 963.56 510.957C962.966 510.705 962.494 510.315 962.145 509.788C961.802 509.262 961.633 508.603 961.638 507.813V495.451Z" fill="black"/>
<path d="M969.32 511.122V498.48H972.28V511.122H969.32ZM970.808 496.686C970.34 496.686 969.936 496.529 969.598 496.216C969.26 495.898 969.091 495.517 969.091 495.072C969.091 494.622 969.26 494.241 969.598 493.928C969.936 493.61 970.34 493.451 970.808 493.451C971.283 493.451 971.686 493.61 972.018 493.928C972.356 494.241 972.525 494.622 972.525 495.072C972.525 495.517 972.356 495.898 972.018 496.216C971.686 496.529 971.283 496.686 970.808 496.686Z" fill="black"/>
<path d="M980.571 511.369C979.345 511.369 978.282 511.097 977.382 510.554C976.483 510.011 975.785 509.251 975.289 508.274C974.799 507.297 974.554 506.156 974.554 504.85C974.554 503.544 974.799 502.4 975.289 501.418C975.785 500.436 976.483 499.673 977.382 499.13C978.282 498.587 979.345 498.315 980.571 498.315C981.797 498.315 982.86 498.587 983.76 499.13C984.659 499.673 985.354 500.436 985.844 501.418C986.34 502.4 986.588 503.544 986.588 504.85C986.588 506.156 986.34 507.297 985.844 508.274C985.354 509.251 984.659 510.011 983.76 510.554C982.86 511.097 981.797 511.369 980.571 511.369ZM980.587 508.982C981.252 508.982 981.808 508.798 982.255 508.43C982.702 508.057 983.035 507.558 983.253 506.932C983.476 506.307 983.588 505.61 983.588 504.842C983.588 504.068 983.476 503.369 983.253 502.743C983.035 502.112 982.702 501.61 982.255 501.237C981.808 500.864 981.252 500.677 980.587 500.677C979.906 500.677 979.339 500.864 978.887 501.237C978.44 501.61 978.105 502.112 977.881 502.743C977.663 503.369 977.554 504.068 977.554 504.842C977.554 505.61 977.663 506.307 977.881 506.932C978.105 507.558 978.44 508.057 978.887 508.43C979.339 508.798 979.906 508.982 980.587 508.982Z" fill="black"/>
<path d="M991.83 503.714V511.122H988.87V498.48H991.699V500.628H991.846C992.135 499.92 992.596 499.358 993.228 498.941C993.866 498.524 994.653 498.315 995.591 498.315C996.457 498.315 997.212 498.502 997.855 498.875C998.504 499.248 999.005 499.788 999.36 500.496C999.719 501.204 999.897 502.063 999.891 503.072V511.122H996.932V503.533C996.932 502.688 996.713 502.027 996.277 501.55C995.847 501.072 995.25 500.834 994.487 500.834C993.969 500.834 993.509 500.949 993.105 501.179C992.707 501.404 992.394 501.731 992.165 502.159C991.942 502.587 991.83 503.105 991.83 503.714Z" fill="black"/>
<path d="M562.818 179.599V247.231H554.258V179.599H529.953V172.202H587.757V179.599H562.818ZM609.42 170.406V194.394H645.561L645.667 247.231H637.741L637.635 201.791H609.42V247.231H601.495V177.803H595.577V170.406H609.42ZM683.287 211.196C686.598 211.196 689.642 211.668 692.417 212.612C695.207 213.57 697.13 214.789 698.187 216.269L698.715 217.008V201.791H667.541V194.394H706.641V247.231H698.715V242.265L698.187 242.793C696.496 244.484 694.348 245.893 691.741 247.02C689.134 248.147 686.492 248.711 683.815 248.711C679.518 248.711 675.728 247.901 672.445 246.28C669.176 244.66 666.611 242.406 664.752 239.517C662.878 236.629 661.941 233.318 661.941 229.584C661.941 225.991 662.842 222.799 664.646 220.01C666.435 217.234 668.95 215.071 672.191 213.521C675.432 211.971 679.13 211.196 683.287 211.196ZM669.866 229.584C669.866 233.036 671.17 235.854 673.776 238.038C676.383 240.222 679.729 241.314 683.815 241.314C688.183 241.314 691.755 240.222 694.531 238.038C697.321 235.854 698.715 233.036 698.715 229.584C698.715 226.343 697.292 223.701 694.446 221.658C691.586 219.615 687.866 218.594 683.287 218.594C679.342 218.594 676.122 219.615 673.628 221.658C671.12 223.701 669.866 226.343 669.866 229.584ZM755.146 183.192H742.359V170.406H755.146V183.192ZM755.146 191.963V239.834H778.711V247.231H723.443V239.834H747.22V199.361H728.622V191.963H755.146ZM858.39 247.231H850.465V172.202H901.294L901.4 247.231H893.474L893.369 179.599H879.842V247.231H871.917V179.599H858.39V247.231ZM945.361 183.192H932.574V170.406H945.361V183.192ZM945.361 191.963V239.834H968.926V247.231H913.658V239.834H937.435V199.361H918.836V191.963H945.361ZM988.899 247.231H980.973V194.394H1025.67L1025.78 247.231H1017.85L1017.75 201.791H988.899V247.231ZM1053.25 170.406V194.394H1089.4L1089.5 247.231H1081.58L1081.47 201.791H1053.25V247.231H1045.33V177.803H1039.41V170.406H1053.25Z" fill="black" stroke="black" stroke-width="2"/>
<path d="M533.799 306.94H529.953V270.53H553.388L553.439 306.94H549.593L549.542 274.12H533.799V306.94ZM571.234 280.12C572.977 280.12 574.55 280.434 575.952 281.063C577.353 281.699 578.533 282.615 579.49 283.812V281.351H583.336V307.555C583.336 310.666 582.481 312.916 580.772 314.304C579.063 315.685 576.601 316.375 573.388 316.375H561.08V312.786H572.67C574.516 312.786 575.928 312.591 576.906 312.201C577.876 311.805 578.55 311.189 578.926 310.355C579.302 309.514 579.49 308.41 579.49 307.042V304.119C577.541 306.444 574.875 307.606 571.49 307.606C567.832 307.606 564.937 306.4 562.803 303.986C560.663 301.579 559.593 298.307 559.593 294.171C559.593 291.299 560.072 288.81 561.029 286.704C561.986 284.605 563.337 282.981 565.08 281.833C566.824 280.691 568.875 280.12 571.234 280.12ZM563.439 294.171C563.439 297.179 564.167 299.572 565.624 301.35C567.073 303.128 569.029 304.017 571.49 304.017C573.952 304.017 575.9 303.111 577.336 301.299C578.772 299.487 579.49 297.025 579.49 293.914C579.49 290.769 578.745 288.28 577.254 286.448C575.771 284.622 573.764 283.709 571.234 283.709C568.841 283.709 566.943 284.65 565.542 286.53C564.14 288.41 563.439 290.957 563.439 294.171ZM603.284 303.35H610.464V281.299H614.31V306.94H602.567C599.353 306.94 596.891 306.249 595.182 304.868C593.473 303.48 592.618 301.23 592.618 298.119V281.299H596.464V297.607C596.464 298.974 596.652 300.075 597.028 300.909C597.404 301.75 598.078 302.366 599.049 302.755C600.026 303.152 601.438 303.35 603.284 303.35ZM646.719 281.299L633.54 316.273H623.54V312.683H630.566L632.771 306.94L622.31 281.299H626.566L634.822 301.504L642.463 281.299H646.719ZM652.463 293.863C652.463 291.026 652.948 288.581 653.919 286.53C654.897 284.479 656.282 282.896 658.073 281.781C659.871 280.674 661.984 280.12 664.411 280.12C666.736 280.12 668.753 280.684 670.463 281.812C672.172 282.94 673.488 284.554 674.411 286.653C675.334 288.759 675.796 291.248 675.796 294.12V294.53H656.258C656.429 297.436 657.283 299.743 658.822 301.453C660.36 303.162 662.343 304.017 664.77 304.017C666.958 304.017 668.692 303.47 669.97 302.376C671.256 301.282 672.001 299.743 672.206 297.76H675.796C675.454 300.906 674.333 303.333 672.432 305.042C670.538 306.752 667.984 307.606 664.77 307.606C662.275 307.606 660.104 307.049 658.258 305.935C656.412 304.827 654.983 303.237 653.971 301.166C652.965 299.101 652.463 296.666 652.463 293.863ZM664.411 283.709C662.223 283.641 660.439 284.256 659.058 285.556C657.67 286.855 656.89 288.65 656.719 290.94H671.796C671.659 288.786 670.924 287.06 669.591 285.761C668.257 284.462 666.531 283.778 664.411 283.709ZM688.821 306.94H684.975V281.299H706.667L706.718 306.94H702.872L702.821 284.889H688.821V306.94Z" fill="black" stroke="black" stroke-width="2"/>
<circle cx="263.395" cy="320" r="200.78" fill="#3B3B3B"/>
<path d="M293.445 413.495V422.26H237.6V413.495H263.269V345.004L244.111 365.163L237.976 359.654L263.269 333.359H272.66V413.495H293.445Z" fill="#C4C4C4" stroke="#C4C4C4" stroke-width="2"/>
<path d="M187.625 262.515C187.625 248.114 190.263 237.067 195.541 229.376C200.803 221.7 208.301 217.822 218.036 217.742C227.611 217.662 234.956 221.483 240.073 229.207C245.174 236.93 247.724 248.033 247.724 262.515C247.724 276.997 245.174 288.1 240.073 295.823C234.956 303.547 227.611 307.369 218.036 307.288C208.301 307.208 200.803 303.306 195.541 295.582C190.263 287.858 187.625 276.836 187.625 262.515ZM196.676 262.515C196.676 274.181 198.526 283.152 202.227 289.427C205.928 295.703 211.198 298.84 218.036 298.84C224.714 298.84 229.823 295.703 233.363 289.427C236.903 283.152 238.673 274.181 238.673 262.515C238.673 250.769 236.903 241.774 233.363 235.531C229.823 229.303 224.714 226.19 218.036 226.19C211.198 226.19 205.928 229.303 202.227 235.531C198.526 241.774 196.676 250.769 196.676 262.515ZM222.984 269.273H212.364V258.533H222.984V269.273Z" fill="#C4C4C4" stroke="#C4C4C4" stroke-width="2"/>
<path d="M283.321 262.515C283.321 248.114 285.96 237.067 291.238 229.376C296.499 221.7 303.998 217.822 313.733 217.742C323.307 217.662 330.652 221.483 335.769 229.207C340.87 236.93 343.421 248.033 343.421 262.515C343.421 276.997 340.87 288.1 335.769 295.823C330.652 303.547 323.307 307.369 313.733 307.288C303.998 307.208 296.499 303.306 291.238 295.582C285.96 287.858 283.321 276.836 283.321 262.515ZM292.372 262.515C292.372 274.181 294.222 283.152 297.923 289.427C301.624 295.703 306.894 298.84 313.733 298.84C320.41 298.84 325.519 295.703 329.059 289.427C332.599 283.152 334.369 274.181 334.369 262.515C334.369 250.769 332.599 241.774 329.059 235.531C325.519 229.303 320.41 226.19 313.733 226.19C306.894 226.19 301.624 229.303 297.923 235.531C294.222 241.774 292.372 250.769 292.372 262.515ZM318.681 269.273H308.061V258.533H318.681V269.273Z" fill="#C4C4C4" stroke="#C4C4C4" stroke-width="2"/>
</g>
<defs>
<linearGradient id="paint0_linear_4150_53" x1="1267.1" y1="271.687" x2="1080.38" y2="692.319" gradientUnits="userSpaceOnUse">
<stop stop-color="#ED24B1"/>
<stop offset="1" stop-color="#FFFF27"/>
</linearGradient>
<linearGradient id="paint1_linear_4150_53" x1="562.684" y1="422.26" x2="905.256" y2="364.437" gradientUnits="userSpaceOnUse">
<stop stop-color="#42E97A"/>
<stop offset="1" stop-color="#6052E3"/>
</linearGradient>
<linearGradient id="paint2_linear_4150_53" x1="1146.25" y1="374.003" x2="706.371" y2="209.558" gradientUnits="userSpaceOnUse">
<stop stop-color="#DBB740"/>
<stop offset="1" stop-color="#F5614E"/>
</linearGradient>
<clipPath id="clip0_4150_53">
<rect x="0.0737305" width="1280" height="640" rx="100" fill="white"/>
</clipPath>
</defs>
</svg>
